PathFileType	4	(X/Y/Z)	C:/Users/opensim2020/Desktop/walking_exp_matlab/subject01_walking07_straight_02.trc	
DataRate	CameraRate	NumFrames	NumMarkers	Units	OrigDataRate	OrigDataStartFrame	OrigNumFrames	
100.00	100.00	4	43	mm	100.00	1540	178	
Frame#	Time	LFHD			RFHD			LBHD			RBHD			C7			T10			CLAV			STRN			RBAK			LSHO			LUPA			LELB			LFRM			LWRA			LWRB			LFIN			RSHO			RUPA			RELB			RFRM			RWRA			RWRB			RFIN			LASI			RASI			LPSI			RPSI			LTHI			LKNE			LTIB			LANK			LHEE			LTOE			RTHI			RKNE			RTIB			RANK			RHEE			RTOE			*39			*40			*41			*42			
		X1	Y1	Z1	X2	Y2	Z2	X3	Y3	Z3	X4	Y4	Z4	X5	Y5	Z5	X6	Y6	Z6	X7	Y7	Z7	X8	Y8	Z8	X9	Y9	Z9	X10	Y10	Z10	X11	Y11	Z11	X12	Y12	Z12	X13	Y13	Z13	X14	Y14	Z14	X15	Y15	Z15	X16	Y16	Z16	X17	Y17	Z17	X18	Y18	Z18	X19	Y19	Z19	X20	Y20	Z20	X21	Y21	Z21	X22	Y22	Z22	X23	Y23	Z23	X24	Y24	Z24	X25	Y25	Z25	X26	Y26	Z26	X27	Y27	Z27	X28	Y28	Z28	X29	Y29	Z29	X30	Y30	Z30	X31	Y31	Z31	X32	Y32	Z32	X33	Y33	Z33	X34	Y34	Z34	X35	Y35	Z35	X36	Y36	Z36	X37	Y37	Z37	X38	Y38	Z38	X39	Y39	Z39	X40	Y40	Z40	X41	Y41	Z41	X42	Y42	Z42	X43	Y43	Z43	

112	1.110	-1046.77356	-109.41054	1677.47217	-1155.20654	-148.81499	1681.92261	-1083.17395	2.83492	1632.34351	-1197.30261	-35.93504	1636.92236	-1117.32581	31.40886	1437.53491	-1119.50635	65.89902	1144.70898	-1105.14404	-111.93709	1371.91980	-1095.03577	-156.18080	1217.21619	-1195.74841	78.37151	1243.65344	-949.02240	-40.45596	1403.11145	-865.68915	-2.03388	1219.49683	-867.66650	17.13979	1069.66650	-839.38263	-14.75311	960.54089	-853.69849	-87.97517	840.97900	-830.23828	-32.87340	839.31250	-820.92529	-77.45401	766.87543	-1261.65637	-63.18750	1399.88232	-1363.09985	-16.00908	1197.43127	-1365.14746	-20.82000	1072.49011	-1393.66455	-61.07776	958.11469	-1373.35901	-152.48328	851.18860	-1412.13708	-109.44276	846.30005	-1406.41345	-153.92387	772.10455	-998.62396	-99.90508	939.83002	-1216.03064	-113.85350	940.91632	-1059.41516	81.58456	947.35968	-1204.09045	73.31461	952.99072	-929.09064	-130.19437	615.71948	-935.78809	-144.70451	484.06058	-938.97443	-10.71657	360.02350	-993.80859	131.77460	196.62685	-1055.30664	174.35715	196.69809	-972.68774	56.08253	69.42609	-1269.46753	-66.07298	605.78442	-1242.49792	-77.75501	447.58832	-1249.88464	-21.51407	279.17545	-1197.33752	8.20085	76.02097	-1148.35474	59.08648	39.73972	-1193.71094	-132.19815	34.68346	-1136.07422	-131.63084	1715.74573	-3102.10913	1973.06042	1023.93311	-3140.56616	2012.56079	1021.88037			 
113	1.120	-1046.24377	-119.10103	1677.18420	-1154.36108	-158.95088	1681.89258	-1083.00769	-6.95268	1632.47937	-1197.04163	-46.11238	1637.28101	-1117.79431	21.94942	1437.69250	-1120.49866	56.75819	1144.95776	-1105.17175	-121.35024	1371.94910	-1095.12817	-165.34264	1217.19043	-1196.83984	68.77135	1243.96265	-949.21429	-49.38467	1403.02368	-866.70355	-9.68425	1219.30164	-869.21637	10.92138	1069.91492	-841.30212	-18.56210	960.17432	-855.89038	-89.49449	838.93542	-832.50690	-33.90102	838.62946	-823.24451	-76.66091	764.94452	-1261.74268	-73.13902	1400.24438	-1363.73816	-27.21002	1197.91992	-1366.35071	-32.84968	1072.82837	-1394.63794	-75.60544	959.19678	-1374.32068	-169.41386	854.51923	-1412.84143	-126.41225	848.40930	-1407.39539	-172.85614	775.55511	-999.35693	-108.67406	940.39203	-1216.81665	-122.45830	940.64423	-1059.58606	72.76772	947.72675	-1204.27332	64.68285	953.13135	-928.78479	-143.31339	617.77148	-935.89899	-159.33287	486.23962	-939.46893	-28.73260	357.92474	-994.21155	107.57030	189.70151	-1055.91553	150.44328	187.38783	-971.66064	25.43941	67.12505	-1269.48926	-71.75795	605.72626	-1242.76929	-81.17111	447.34897	-1250.15698	-23.23058	279.52457	-1197.23303	7.78424	76.21712	-1148.47192	58.86604	40.37751	-1193.72559	-132.40242	34.62452	-1134.63464	-141.39359	1715.59497	-3101.90161	1973.17664	1023.48816	-3140.76099	2012.57568	1021.98022			 
114	1.130	-1045.51257	-128.91653	1676.93115	-1153.52698	-169.06949	1681.81860	-1082.77917	-16.73044	1632.45923	-1196.65613	-56.29793	1637.54968	-1118.32935	12.45657	1437.94702	-1121.46863	47.58081	1145.12244	-1105.11438	-130.72272	1371.86938	-1095.14661	-174.49574	1217.09631	-1197.83252	59.10777	1244.18469	-949.34265	-58.27270	1402.87476	-867.25513	-16.90045	1219.13647	-870.87402	4.79543	1070.05725	-842.99060	-22.48758	959.81104	-857.87006	-90.77538	837.00153	-834.25763	-35.31141	837.95215	-825.53076	-76.25777	763.12964	-1261.79089	-83.20995	1400.46167	-1364.64209	-38.39272	1198.44043	-1367.25647	-44.96792	1072.97974	-1395.74817	-89.77463	960.15961	-1375.12048	-186.11003	858.00769	-1413.28320	-143.19850	850.59857	-1408.23059	-191.48596	779.10767	-999.99817	-117.52827	940.78290	-1217.45728	-131.08752	940.20599	-1059.80383	64.00396	948.03931	-1204.40039	55.96171	953.11060	-928.40509	-156.28169	619.63348	-936.01190	-173.66611	488.26184	-939.50909	-47.05872	355.20340	-994.33691	82.47472	181.70308	-1056.31763	125.63029	177.38065	-970.48071	-5.04033	64.63242	-1269.75891	-77.32684	605.48187	-1242.83264	-84.84301	446.88150	-1250.19690	-25.41144	279.61957	-1197.28894	7.63295	76.56084	-1148.14038	58.77297	40.96830	-1193.68848	-132.47720	34.48349	-1134.27686	-151.87561	1715.70813	-3101.89502	1973.15662	1023.35126	-3140.73560	2012.60791	1022.02271			 
115	1.140	-1044.74243	-138.55954	1676.59241	-1152.57166	-179.15446	1681.65271	-1082.58093	-26.39618	1632.56958	-1196.26025	-66.45948	1637.75562	-1118.49976	2.90829	1437.82532	-1122.33167	38.42439	1145.20325	-1104.95557	-140.13799	1371.77930	-1095.07080	-183.68314	1216.87939	-1198.66614	49.45890	1244.29004	-949.37732	-67.11475	1402.60022	-868.07251	-24.57733	1218.80542	-872.13989	-1.49724	1070.24036	-844.57367	-26.49081	959.49353	-859.79425	-92.37714	835.29761	-835.80475	-36.97608	837.38757	-827.72620	-76.17843	761.46747	-1261.79980	-93.15850	1400.64709	-1365.58997	-49.41335	1198.90100	-1368.27661	-56.63698	1073.19202	-1396.35645	-103.86655	961.10278	-1375.90393	-202.72928	861.41479	-1413.68286	-159.67792	852.72174	-1408.93091	-209.94958	782.71533	-1000.54498	-126.39693	941.10199	-1217.91357	-139.68750	939.70544	-1060.01025	55.28836	948.16034	-1204.53821	47.32724	953.11444	-927.93445	-168.98790	621.35828	-936.09180	-187.61327	489.98343	-939.20056	-65.52592	351.87338	-994.20471	57.57525	173.51790	-1056.46484	100.10902	166.61353	-968.91498	-36.01893	61.94714	-1269.73950	-82.85345	605.16345	-1242.85254	-88.44486	446.45654	-1250.07605	-27.83097	279.75827	-1197.16931	7.35721	77.05140	-1148.00757	58.60589	41.64211	-1193.73938	-132.68193	34.56033	-1133.21436	-161.95375	1715.43567	-3101.93823	1973.13184	1023.36328	-3140.62012	2012.66394	1022.03900			 
